{
  "accessors": [
    {
      "bufferView": 1,
      "componentType": 5126,
      "count": 65532,
      "max": [
        239.44509887695313,
        212.70970153808594,
        157.88929748535156
      ],
      "min": [
        87.73819732666016,
        169.1959991455078,
        29.297399520874023
      ],
      "type": "VEC3"
    },
    {
      "bufferView": 1,
      "byteOffset": 786384,
      "componentType": 5126,
      "count": 65532,
      "max": [
        0.999983012676239,
        0.9999412894248962,
        0.9999861717224121
      ],
      "min": [
        -0.9998351335525513,
        -0.9999560117721558,
        -0.9999479651451111
      ],
      "type": "VEC3"
    },
    {
      "bufferView": 0,
      "componentType": 5125,
      "count": 320883,
      "type": "SCALAR"
    },
    {
      "bufferView": 1,
      "byteOffset": 1572768,
      "componentType": 5126,
      "count": 65532,
      "max": [
        211.41690063476563,
        233.71730041503906,
        163.4512939453125
      ],
      "min": [
        74.0469970703125,
        169.1959991455078,
        24.787900924682617
      ],
      "type": "VEC3"
    },
    {
      "bufferView": 1,
      "byteOffset": 2359152,
      "componentType": 5126,
      "count": 65532,
      "max": [
        0.9998955726623535,
        0.9999769330024719,
        0.9999932050704956
      ],
      "min": [
        -0.9999968409538269,
        -0.999890148639679,
        -0.9999178647994995
      ],
      "type": "VEC3"
    },
    {
      "bufferView": 0,
      "byteOffset": 1283532,
      "componentType": 5125,
      "count": 324855,
      "type": "SCALAR"
    },
    {
      "bufferView": 1,
      "byteOffset": 3145536,
      "componentType": 5126,
      "count": 65532,
      "max": [
        231.0117950439453,
        234.94769287109375,
        167.3242950439453
      ],
      "min": [
        69.15450286865234,
        169.0906982421875,
        24.04829978942871
      ],
      "type": "VEC3"
    },
    {
      "bufferView": 1,
      "byteOffset": 3931920,
      "componentType": 5126,
      "count": 65532,
      "max": [
        0.9999797940254211,
        0.9999006986618042,
        0.9998537302017212
      ],
      "min": [
        -0.9999536275863647,
        -0.9999400973320007,
        -0.999969482421875
      ],
      "type": "VEC3"
    },
    {
      "bufferView": 0,
      "byteOffset": 2582952,
      "componentType": 5125,
      "count": 325857,
      "type": "SCALAR"
    },
    {
      "bufferView": 1,
      "byteOffset": 4718304,
      "componentType": 5126,
      "count": 65532,
      "max": [
        263.81939697265625,
        240.16799926757813,
        173.73609924316406
      ],
      "min": [
        63.819400787353516,
        169.0699005126953,
        24.82659912109375
      ],
      "type": "VEC3"
    },
    {
      "bufferView": 1,
      "byteOffset": 5504688,
      "componentType": 5126,
      "count": 65532,
      "max": [
        0.9999969601631165,
        0.9999723434448242,
        0.9999842643737793
      ],
      "min": [
        -0.9993699789047241,
        -0.9999372363090515,
        -0.9999879598617554
      ],
      "type": "VEC3"
    },
    {
      "bufferView": 0,
      "byteOffset": 3886380,
      "componentType": 5125,
      "count": 324765,
      "type": "SCALAR"
    },
    {
      "bufferView": 1,
      "byteOffset": 6291072,
      "componentType": 5126,
      "count": 65532,
      "max": [
        198.88670349121094,
        239.57040405273438,
        168.6208038330078
      ],
      "min": [
        68.56620025634766,
        175.83990478515625,
        24.04829978942871
      ],
      "type": "VEC3"
    },
    {
      "bufferView": 1,
      "byteOffset": 7077456,
      "componentType": 5126,
      "count": 65532,
      "max": [
        0.9999098181724548,
        0.9999786615371704,
        0.9998884201049805
      ],
      "min": [
        -0.9999974370002747,
        -0.9999648332595825,
        -0.9999250769615173
      ],
      "type": "VEC3"
    },
    {
      "bufferView": 0,
      "byteOffset": 5185440,
      "componentType": 5125,
      "count": 347316,
      "type": "SCALAR"
    },
    {
      "bufferView": 1,
      "byteOffset": 7863840,
      "componentType": 5126,
      "count": 65532,
      "max": [
        180.59410095214844,
        219.29420471191406,
        120.91110229492188
      ],
      "min": [
        150.2021942138672,
        169.05419921875,
        51.95560073852539
      ],
      "type": "VEC3"
    },
    {
      "bufferView": 1,
      "byteOffset": 8650224,
      "componentType": 5126,
      "count": 65532,
      "max": [
        0.999869167804718,
        0.9999929666519165,
        0.9999991655349731
      ],
      "min": [
        -0.9999753832817078,
        -0.9999927282333374,
        -0.9999972581863403
      ],
      "type": "VEC3"
    },
    {
      "bufferView": 0,
      "byteOffset": 6574704,
      "componentType": 5125,
      "count": 339186,
      "type": "SCALAR"
    },
    {
      "bufferView": 1,
      "byteOffset": 9436608,
      "componentType": 5126,
      "count": 65532,
      "max": [
        262.40069580078125,
        229.13760375976563,
        171.13890075683594
      ],
      "min": [
        147.3946990966797,
        169.0738067626953,
        60.267398834228516
      ],
      "type": "VEC3"
    },
    {
      "bufferView": 1,
      "byteOffset": 10222992,
      "componentType": 5126,
      "count": 65532,
      "max": [
        0.9999759197235107,
        0.999991774559021,
        0.9999319314956665
      ],
      "min": [
        -0.9999423027038574,
        -0.9999714493751526,
        -0.9999955892562866
      ],
      "type": "VEC3"
    },
    {
      "bufferView": 0,
      "byteOffset": 7931448,
      "componentType": 5125,
      "count": 331146,
      "type": "SCALAR"
    },
    {
      "bufferView": 1,
      "byteOffset": 11009376,
      "componentType": 5126,
      "count": 65532,
      "max": [
        263.1122131347656,
        238.68519592285156,
        171.31809997558594
      ],
      "min": [
        74.30339813232422,
        177.78880310058594,
        26.107099533081055
      ],
      "type": "VEC3"
    },
    {
      "bufferView": 1,
      "byteOffset": 11795760,
      "componentType": 5126,
      "count": 65532,
      "max": [
        0.9999376535415649,
        0.9999826550483704,
        0.9999972581863403
      ],
      "min": [
        -0.9998356103897095,
        -0.9999541640281677,
        -0.9999496936798096
      ],
      "type": "VEC3"
    },
    {
      "bufferView": 0,
      "byteOffset": 9256032,
      "componentType": 5125,
      "count": 328635,
      "type": "SCALAR"
    },
    {
      "bufferView": 1,
      "byteOffset": 12582144,
      "componentType": 5126,
      "count": 6858,
      "max": [
        158.5653076171875,
        240.1674041748047,
        173.69369506835938
      ],
      "min": [
        64.34269714355469,
        178.38479614257813,
        73.01740264892578
      ],
      "type": "VEC3"
    },
    {
      "bufferView": 1,
      "byteOffset": 12664440,
      "componentType": 5126,
      "count": 6858,
      "max": [
        0.9997868537902832,
        0.9999858736991882,
        0.9993451237678528
      ],
      "min": [
        -0.9985707402229309,
        -0.9990637898445129,
        -0.9994722604751587
      ],
      "type": "VEC3"
    },
    {
      "bufferView": 0,
      "byteOffset": 10570572,
      "componentType": 5125,
      "count": 31143,
      "type": "SCALAR"
    }
  ],
  "asset": {
    "extras": {
      "author": "Pobaby (https://sketchfab.com/Pobaby)",
      "license": "CC-BY-NC-4.0 (http://creativecommons.org/licenses/by-nc/4.0/)",
      "source": "https://sketchfab.com/3d-models/monster-hunter-dragon-3efb94ddc21341808adcd33ba8507eb0",
      "title": "Monster Hunter dragon"
    },
    "generator": "Sketchfab-13.74.0",
    "version": "2.0"
  },
  "bufferViews": [
    {
      "buffer": 0,
      "byteLength": 10695144,
      "name": "floatBufferViews",
      "target": 34963
    },
    {
      "buffer": 0,
      "byteLength": 12746736,
      "byteOffset": 10695144,
      "byteStride": 12,
      "name": "floatBufferViews",
      "target": 34962
    }
  ],
  "buffers": [
    {
      "byteLength": 23441880,
      "uri": "scene.bin"
    }
  ],
  "materials": [
    {
      "doubleSided": true,
      "name": "Scene_-_Root",
      "pbrMetallicRoughness": {
        "metallicFactor": 0.0,
        "roughnessFactor": 0.6
      }
    }
  ],
  "meshes": [
    {
      "name": "Object_0",
      "primitives": [
        {
          "attributes": {
            "NORMAL": 1,
            "POSITION": 0
          },
          "indices": 2,
          "material": 0,
          "mode": 4
        }
      ]
    },
    {
      "name": "Object_1",
      "primitives": [
        {
          "attributes": {
            "NORMAL": 4,
            "POSITION": 3
          },
          "indices": 5,
          "material": 0,
          "mode": 4
        }
      ]
    },
    {
      "name": "Object_2",
      "primitives": [
        {
          "attributes": {
            "NORMAL": 7,
            "POSITION": 6
          },
          "indices": 8,
          "material": 0,
          "mode": 4
        }
      ]
    },
    {
      "name": "Object_3",
      "primitives": [
        {
          "attributes": {
            "NORMAL": 10,
            "POSITION": 9
          },
          "indices": 11,
          "material": 0,
          "mode": 4
        }
      ]
    },
    {
      "name": "Object_4",
      "primitives": [
        {
          "attributes": {
            "NORMAL": 13,
            "POSITION": 12
          },
          "indices": 14,
          "material": 0,
          "mode": 4
        }
      ]
    },
    {
      "name": "Object_5",
      "primitives": [
        {
          "attributes": {
            "NORMAL": 16,
            "POSITION": 15
          },
          "indices": 17,
          "material": 0,
          "mode": 4
        }
      ]
    },
    {
      "name": "Object_6",
      "primitives": [
        {
          "attributes": {
            "NORMAL": 19,
            "POSITION": 18
          },
          "indices": 20,
          "material": 0,
          "mode": 4
        }
      ]
    },
    {
      "name": "Object_7",
      "primitives": [
        {
          "attributes": {
            "NORMAL": 22,
            "POSITION": 21
          },
          "indices": 23,
          "material": 0,
          "mode": 4
        }
      ]
    },
    {
      "name": "Object_8",
      "primitives": [
        {
          "attributes": {
            "NORMAL": 25,
            "POSITION": 24
          },
          "indices": 26,
          "material": 0,
          "mode": 4
        }
      ]
    }
  ],
  "nodes": [
    {
      "children": [
        1
      ],
      "matrix": [
        1.0,
        0.0,
        0.0,
        0.0,
        0.0,
        2.220446049250313e-16,
        -1.0,
        0.0,
        0.0,
        1.0,
        2.220446049250313e-16,
        0.0,
        0.0,
        0.0,
        0.0,
        1.0
      ],
      "name": "Sketchfab_model"
    },
    {
      "children": [
        2,
        3,
        4,
        5,
        6,
        7,
        8,
        9,
        10
      ],
      "name": "all-all-7.stl.cleaner.materialmerger.gles"
    },
    {
      "mesh": 0,
      "name": "Object_2"
    },
    {
      "mesh": 1,
      "name": "Object_3"
    },
    {
      "mesh": 2,
      "name": "Object_4"
    },
    {
      "mesh": 3,
      "name": "Object_5"
    },
    {
      "mesh": 4,
      "name": "Object_6"
    },
    {
      "mesh": 5,
      "name": "Object_7"
    },
    {
      "mesh": 6,
      "name": "Object_8"
    },
    {
      "mesh": 7,
      "name": "Object_9"
    },
    {
      "mesh": 8,
      "name": "Object_10"
    }
  ],
  "scene": 0,
  "scenes": [
    {
      "name": "Sketchfab_Scene",
      "nodes": [
        0
      ]
    }
  ]
}
